<svg version="1.2" baseProfile="tiny-ps" xmlns="http://www.w3.org/2000/svg" viewBox="0 0 24 24" width="24" height="24">
	<title>discord-svg</title>
	<style>
		tspan { white-space:pre }
		.shp0 { fill: #5865f2 } 
	</style>
	<path id="Layer" fill-rule="evenodd" class="shp0" d="M20.32 4.37C20.32 4.37 20.32 4.37 20.33 4.37C20.33 4.38 20.33 4.38 20.34 4.38C20.34 4.38 20.34 4.39 20.34 4.39C20.34 4.39 20.35 4.4 20.35 4.4C23.06 8.38 24.4 12.88 23.9 18.06C23.9 18.06 23.9 18.07 23.89 18.07C23.89 18.08 23.89 18.08 23.89 18.09C23.88 18.09 23.88 18.1 23.88 18.1C23.87 18.11 23.87 18.11 23.87 18.11C21.81 19.62 19.82 20.54 17.86 21.14C17.86 21.15 17.85 21.15 17.84 21.15C17.83 21.15 17.82 21.15 17.82 21.14C17.81 21.14 17.8 21.14 17.8 21.13C17.79 21.13 17.78 21.12 17.78 21.11C17.33 20.48 16.91 19.82 16.55 19.12C16.55 19.11 16.55 19.1 16.55 19.09C16.54 19.08 16.55 19.07 16.55 19.06C16.55 19.05 16.56 19.04 16.57 19.03C16.58 19.02 16.58 19.02 16.59 19.01C16.76 18.95 16.92 18.89 17.08 18.82C17.24 18.75 17.39 18.68 17.55 18.61C17.71 18.53 17.86 18.46 18.01 18.38C18.17 18.29 18.32 18.21 18.47 18.12C18.48 18.12 18.49 18.11 18.49 18.1C18.5 18.09 18.5 18.07 18.5 18.06C18.51 18.05 18.5 18.04 18.5 18.02C18.49 18.01 18.48 18 18.47 18C18.35 17.9 18.22 17.8 18.1 17.7C18.1 17.7 18.09 17.7 18.08 17.69C18.08 17.69 18.07 17.69 18.06 17.69C18.06 17.69 18.05 17.69 18.04 17.69C18.04 17.69 18.03 17.69 18.02 17.69C14.14 19.49 9.89 19.49 5.96 17.69C5.96 17.69 5.95 17.69 5.94 17.69C5.93 17.69 5.93 17.69 5.92 17.69C5.91 17.69 5.91 17.69 5.9 17.69C5.9 17.7 5.89 17.7 5.88 17.7C5.76 17.8 5.64 17.9 5.51 18C5.5 18 5.49 18.01 5.49 18.02C5.48 18.04 5.48 18.05 5.48 18.06C5.48 18.07 5.49 18.09 5.49 18.1C5.5 18.11 5.51 18.12 5.52 18.12C6.12 18.47 6.74 18.77 7.39 19.02C7.4 19.02 7.41 19.03 7.42 19.03C7.43 19.04 7.43 19.05 7.44 19.06C7.44 19.07 7.44 19.08 7.44 19.09C7.44 19.1 7.44 19.11 7.43 19.12C7.08 19.82 6.67 20.49 6.21 21.12C6.2 21.12 6.2 21.13 6.19 21.13C6.18 21.14 6.18 21.14 6.17 21.14C6.16 21.15 6.15 21.15 6.15 21.15C6.14 21.15 6.13 21.15 6.12 21.14C4.17 20.54 2.18 19.62 0.13 18.11C0.13 18.11 0.12 18.11 0.12 18.1C0.11 18.1 0.11 18.09 0.11 18.09C0.11 18.08 0.1 18.08 0.1 18.07C0.1 18.07 0.1 18.06 0.1 18.06C-0.32 13.58 0.53 9.05 3.64 4.4C3.65 4.39 3.65 4.39 3.65 4.39C3.65 4.39 3.66 4.38 3.66 4.38C3.66 4.38 3.66 4.38 3.67 4.37C3.67 4.37 3.67 4.37 3.68 4.37C4.07 4.19 4.46 4.03 4.86 3.87C5.26 3.72 5.66 3.58 6.07 3.45C6.48 3.33 6.89 3.21 7.31 3.11C7.72 3.01 8.14 2.93 8.56 2.85C8.57 2.85 8.58 2.85 8.59 2.85C8.59 2.86 8.6 2.86 8.61 2.86C8.61 2.86 8.62 2.87 8.63 2.87C8.63 2.88 8.64 2.89 8.64 2.89C8.85 3.27 9.09 3.75 9.26 4.14C11.07 3.86 12.9 3.86 14.75 4.14C14.91 3.76 15.14 3.27 15.35 2.89C15.36 2.88 15.36 2.88 15.37 2.87C15.37 2.87 15.38 2.86 15.39 2.86C15.39 2.86 15.4 2.85 15.41 2.85C15.42 2.85 15.42 2.85 15.43 2.85C15.85 2.93 16.27 3.01 16.69 3.11C17.1 3.21 17.52 3.33 17.92 3.45C18.33 3.58 18.74 3.72 19.14 3.87C19.53 4.03 19.93 4.19 20.32 4.37L20.32 4.37ZM8.02 15.33C9.22 15.33 10.18 14.25 10.18 12.91C10.2 11.59 9.23 10.49 8.02 10.49C6.82 10.49 5.86 11.58 5.86 12.91C5.86 14.25 6.84 15.33 8.02 15.33ZM15.99 15.33C17.21 15.33 18.15 14.25 18.15 12.91C18.17 11.59 17.21 10.49 15.99 10.49C14.79 10.49 13.84 11.58 13.84 12.91C13.84 14.25 14.81 15.33 15.99 15.33Z" />
</svg>
