<svg version="1.2" baseProfile="tiny-ps" xmlns="http://www.w3.org/2000/svg" viewBox="0 0 24 24" width="24" height="24">
	<title>telegram-svg</title>
	<style>
		tspan { white-space:pre }
		.shp0 { fill: #26a5e4 } 
	</style>
	<path id="Layer" fill-rule="evenodd" class="shp0" d="M11.94 0C11.95 0 11.95 0 11.96 0C11.96 0 11.97 0 11.97 0C11.98 0 11.98 0 11.99 0C11.99 0 12 0 12 0C13.58 0 15.14 0.31 16.59 0.91C18.05 1.52 19.37 2.4 20.49 3.51C21.6 4.63 22.48 5.95 23.09 7.41C23.69 8.86 24 10.42 24 12C24 13.58 23.69 15.14 23.09 16.59C22.48 18.05 21.6 19.37 20.49 20.49C19.37 21.6 18.05 22.48 16.59 23.09C15.14 23.69 13.58 24 12 24C10.42 24 8.86 23.69 7.41 23.09C5.95 22.48 4.63 21.6 3.51 20.49C2.4 19.37 1.52 18.05 0.91 16.59C0.31 15.14 0 13.58 0 12C0 10.43 0.31 8.87 0.91 7.42C1.51 5.97 2.39 4.65 3.49 3.53C4.6 2.42 5.92 1.54 7.37 0.93C8.82 0.32 10.37 0.01 11.94 0ZM16.91 7.22C16.45 7.23 15.76 7.47 12.43 8.86C11.26 9.34 8.93 10.35 5.43 11.87C4.86 12.1 4.57 12.32 4.54 12.54C4.49 12.95 5.08 13.08 5.84 13.33C6.45 13.52 7.27 13.76 7.7 13.77C8.09 13.78 8.52 13.62 9 13.29C12.27 11.08 13.96 9.96 14.06 9.94C14.14 9.92 14.24 9.9 14.31 9.96C14.38 10.03 14.38 10.14 14.37 10.18C14.31 10.43 11.24 13.22 11.06 13.41C10.39 14.11 9.62 14.54 10.8 15.32C11.83 15.99 12.43 16.42 13.48 17.12C14.16 17.56 14.69 18.08 15.38 18.02C15.7 17.99 16.03 17.69 16.2 16.79C16.6 14.66 17.38 10.06 17.56 8.16C17.58 8 17.56 7.78 17.54 7.69C17.54 7.66 17.53 7.63 17.52 7.6C17.51 7.57 17.5 7.54 17.49 7.51C17.47 7.48 17.46 7.46 17.44 7.43C17.42 7.41 17.39 7.38 17.37 7.36C17.23 7.25 17.01 7.22 16.91 7.22Z" />
</svg>